<?xml version="1.0" encoding="utf-8"?>
<!-- Generator: Adobe Illustrator 28.0.0, SVG Export Plug-In . SVG Version: 6.00 Build 0)  -->
<svg version="1.1" id="Vrstva_1" xmlns="http://www.w3.org/2000/svg" xmlns:xlink="http://www.w3.org/1999/xlink" x="0px" y="0px"
	 viewBox="0 0 244.8 177.2" style="enable-background:new 0 0 244.8 177.2;" xml:space="preserve">
<style type="text/css">
	.st0{fill:url(#SVGID_1_);}
	.st1{fill:url(#SVGID_00000036213222475365079570000002891580448058961803_);}
	.st2{fill:url(#SVGID_00000034782947747457517670000012922713564423784381_);}
	.st3{fill:url(#SVGID_00000139287606094963699890000003413785139958930111_);}
	.st4{fill:url(#SVGID_00000170971714892078885770000007272954297934901427_);}
	.st5{fill:url(#SVGID_00000141415717047514913310000001620584200101434758_);}
	.st6{fill:url(#SVGID_00000005948161759792836820000009654489620651019442_);}
	.st7{fill:url(#SVGID_00000116955124466065175690000001315886917500345992_);}
	.st8{fill:url(#SVGID_00000147179704544760486440000003298560644175122331_);}
	.st9{fill:url(#SVGID_00000033335966891162714290000011236598751225581722_);}
	.st10{fill:url(#SVGID_00000173872721117078650220000016335405105811614654_);}
	.st11{fill:url(#SVGID_00000009586017876174627430000003092117913177305239_);}
	.st12{fill:url(#SVGID_00000178893419478421746610000003354151570882100415_);}
	.st13{fill:url(#SVGID_00000096033523246441131100000000334254710506788528_);}
	.st14{fill:url(#SVGID_00000056418911260267386320000015414153645071522964_);}
	.st15{fill:url(#SVGID_00000127754902024282168280000004612725299885003144_);}
	.st16{fill:url(#SVGID_00000043449702840165646860000000483263581033535630_);}
	.st17{fill:url(#SVGID_00000072255911607063373590000007162798862592791465_);}
	.st18{fill:url(#SVGID_00000088818398213527597370000014558703592798332073_);}
	.st19{fill:url(#SVGID_00000167394643698679720520000010248089927790202784_);}
</style>
<g>
	<g>
		<linearGradient id="SVGID_1_" gradientUnits="userSpaceOnUse" x1="118.2" y1="2.1964" x2="118.2" y2="170.8283">
			<stop  offset="0" style="stop-color:#FFFFFF"/>
			<stop  offset="0.2244" style="stop-color:#F6F6F6"/>
			<stop  offset="0.5903" style="stop-color:#DEDEDE"/>
			<stop  offset="1" style="stop-color:#BBBBBB"/>
		</linearGradient>
		<path class="st0" d="M118.2,92.3c-64.1,0-116,7.5-116,16.7s51.9,16.7,116,16.7s116-7.4,116-16.7C234.2,99.8,182.3,92.3,118.2,92.3
			z M118.2,114.8c-14.7,0-26.7-2.6-26.7-5.8c0-3.2,11.9-5.8,26.7-5.8s26.7,2.6,26.7,5.8C144.9,112.2,132.9,114.8,118.2,114.8z"/>
	</g>
	<g>
		<g>
			
				<linearGradient id="SVGID_00000154390349120078230220000016485939249173032355_" gradientUnits="userSpaceOnUse" x1="43.8" y1="2.1964" x2="43.8" y2="170.8283">
				<stop  offset="0" style="stop-color:#FFFFFF"/>
				<stop  offset="0.2244" style="stop-color:#F6F6F6"/>
				<stop  offset="0.5903" style="stop-color:#DEDEDE"/>
				<stop  offset="1" style="stop-color:#BBBBBB"/>
			</linearGradient>
			<polygon style="fill:url(#SVGID_00000154390349120078230220000016485939249173032355_);" points="23.6,2.5 37.3,2.5 50.9,51.2 
				46.9,2.5 60,2.5 64,81.7 47.5,81.7 			"/>
		</g>
		<g>
			
				<linearGradient id="SVGID_00000144338177247681185850000018382147998872409262_" gradientUnits="userSpaceOnUse" x1="85.2" y1="2.1964" x2="85.2" y2="170.8283">
				<stop  offset="0" style="stop-color:#FFFFFF"/>
				<stop  offset="0.2244" style="stop-color:#F6F6F6"/>
				<stop  offset="0.5903" style="stop-color:#DEDEDE"/>
				<stop  offset="1" style="stop-color:#BBBBBB"/>
			</linearGradient>
			<path style="fill:url(#SVGID_00000144338177247681185850000018382147998872409262_);" d="M64.7,2.5h17.4l23.6,79.2H91.9l-4-14.7
				h-7.7l1.3,14.7H68.2L64.7,2.5z M84.4,53.7L76.5,24l2.6,29.7H84.4z"/>
		</g>
		<g>
			
				<linearGradient id="SVGID_00000159471396977046729240000016722430191978681535_" gradientUnits="userSpaceOnUse" x1="103.55" y1="2.1964" x2="103.55" y2="170.8283">
				<stop  offset="0" style="stop-color:#FFFFFF"/>
				<stop  offset="0.2244" style="stop-color:#F6F6F6"/>
				<stop  offset="0.5903" style="stop-color:#DEDEDE"/>
				<stop  offset="1" style="stop-color:#BBBBBB"/>
			</linearGradient>
			<polygon style="fill:url(#SVGID_00000159471396977046729240000016722430191978681535_);" points="96.4,15.8 88.3,15.8 86.1,2.5 
				115.3,2.5 117.6,15.8 109.7,15.8 121,81.7 107.8,81.7 			"/>
		</g>
		<g>
			
				<linearGradient id="SVGID_00000171688202545933462380000002598531944657356989_" gradientUnits="userSpaceOnUse" x1="150.6" y1="2.1964" x2="150.6" y2="170.8283">
				<stop  offset="0" style="stop-color:#FFFFFF"/>
				<stop  offset="0.2244" style="stop-color:#F6F6F6"/>
				<stop  offset="0.5903" style="stop-color:#DEDEDE"/>
				<stop  offset="1" style="stop-color:#BBBBBB"/>
			</linearGradient>
			<polygon style="fill:url(#SVGID_00000171688202545933462380000002598531944657356989_);" points="139.6,18.2 172.4,18.2 
				161.6,81.7 148.4,81.7 156.9,31.5 150.5,31.5 142,81.7 128.8,81.7 			"/>
		</g>
		<g>
			
				<linearGradient id="SVGID_00000144319846610025164800000002311661213046674106_" gradientUnits="userSpaceOnUse" x1="186.5" y1="2.1964" x2="186.5" y2="170.8283">
				<stop  offset="0" style="stop-color:#FFFFFF"/>
				<stop  offset="0.2244" style="stop-color:#F6F6F6"/>
				<stop  offset="0.5903" style="stop-color:#DEDEDE"/>
				<stop  offset="1" style="stop-color:#BBBBBB"/>
			</linearGradient>
			<path style="fill:url(#SVGID_00000144319846610025164800000002311661213046674106_);" d="M168.5,61.9c0-15,6-44.3,23.1-44.3
				c8.7,0,12.9,7.4,12.9,20.5c0,14.8-5.6,44.3-23,44.3C172.8,82.3,168.5,74.9,168.5,61.9z M191.4,36.6c0-4.3-0.7-5.7-1.7-5.7
				c-3.7,0-8.3,21.5-8.3,32.4c0,4.3,0.6,5.7,1.7,5.7C187.1,69,191.4,47.3,191.4,36.6z"/>
		</g>
		<g>
			
				<linearGradient id="SVGID_00000169526240386767549470000006941321635253072803_" gradientUnits="userSpaceOnUse" x1="205.05" y1="2.1964" x2="205.05" y2="170.8283">
				<stop  offset="0" style="stop-color:#FFFFFF"/>
				<stop  offset="0.2244" style="stop-color:#F6F6F6"/>
				<stop  offset="0.5903" style="stop-color:#DEDEDE"/>
				<stop  offset="1" style="stop-color:#BBBBBB"/>
			</linearGradient>
			<polygon style="fill:url(#SVGID_00000169526240386767549470000006941321635253072803_);" points="199.6,68.1 212.8,68.1 
				210.5,81.7 197.3,81.7 			"/>
		</g>
	</g>
	<g>
		<g>
			
				<linearGradient id="SVGID_00000182523086733211748390000001524070693348948159_" gradientUnits="userSpaceOnUse" x1="229.35" y1="2.1964" x2="229.35" y2="170.8283">
				<stop  offset="0" style="stop-color:#FFFFFF"/>
				<stop  offset="0.2244" style="stop-color:#F6F6F6"/>
				<stop  offset="0.5903" style="stop-color:#DEDEDE"/>
				<stop  offset="1" style="stop-color:#BBBBBB"/>
			</linearGradient>
			<polygon style="fill:url(#SVGID_00000182523086733211748390000001524070693348948159_);" points="228.8,129.4 228.8,121.7 
				225.9,121.7 225.9,120.7 232.8,120.7 232.8,121.7 229.9,121.7 229.9,129.4 			"/>
		</g>
		<g>
			
				<linearGradient id="SVGID_00000079457604684435592210000001199138749850581164_" gradientUnits="userSpaceOnUse" x1="238.05" y1="2.1964" x2="238.05" y2="170.8283">
				<stop  offset="0" style="stop-color:#FFFFFF"/>
				<stop  offset="0.2244" style="stop-color:#F6F6F6"/>
				<stop  offset="0.5903" style="stop-color:#DEDEDE"/>
				<stop  offset="1" style="stop-color:#BBBBBB"/>
			</linearGradient>
			<polygon style="fill:url(#SVGID_00000079457604684435592210000001199138749850581164_);" points="233.6,120.6 235.7,120.6 
				238.1,127.8 240.6,120.6 242.5,120.6 242.5,129.3 241.3,129.3 241.3,121.4 238.5,129.3 237.4,129.3 234.7,121.5 234.7,129.3 
				233.6,129.3 233.6,120.6 			"/>
		</g>
	</g>
	<g>
		<g>
			
				<linearGradient id="SVGID_00000062876753220767405380000007992484787661204135_" gradientUnits="userSpaceOnUse" x1="50.8" y1="2.1964" x2="50.8" y2="170.8283">
				<stop  offset="0" style="stop-color:#FFFFFF"/>
				<stop  offset="0.2244" style="stop-color:#F6F6F6"/>
				<stop  offset="0.5903" style="stop-color:#DEDEDE"/>
				<stop  offset="1" style="stop-color:#BBBBBB"/>
			</linearGradient>
			<path style="fill:url(#SVGID_00000062876753220767405380000007992484787661204135_);" d="M47.6,135H54v6.8h-6.4V135z M47.6,143.6
				H54v30.9h-6.4V143.6z"/>
		</g>
		<g>
			
				<linearGradient id="SVGID_00000079453921084492134570000003717758855407122317_" gradientUnits="userSpaceOnUse" x1="63.8" y1="2.1964" x2="63.8" y2="170.8283">
				<stop  offset="0" style="stop-color:#FFFFFF"/>
				<stop  offset="0.2244" style="stop-color:#F6F6F6"/>
				<stop  offset="0.5903" style="stop-color:#DEDEDE"/>
				<stop  offset="1" style="stop-color:#BBBBBB"/>
			</linearGradient>
			<polygon style="fill:url(#SVGID_00000079453921084492134570000003717758855407122317_);" points="55.8,143.6 71.8,143.6 
				71.8,174.5 65.4,174.5 65.4,150.1 62.3,150.1 62.3,174.5 55.9,174.5 55.9,143.6 			"/>
		</g>
		<g>
			
				<linearGradient id="SVGID_00000180346024357118420190000004216105949298922641_" gradientUnits="userSpaceOnUse" x1="81.4" y1="2.1964" x2="81.4" y2="170.8283">
				<stop  offset="0" style="stop-color:#FFFFFF"/>
				<stop  offset="0.2244" style="stop-color:#F6F6F6"/>
				<stop  offset="0.5903" style="stop-color:#DEDEDE"/>
				<stop  offset="1" style="stop-color:#BBBBBB"/>
			</linearGradient>
			<polygon style="fill:url(#SVGID_00000180346024357118420190000004216105949298922641_);" points="72.3,143.6 78.9,143.6 
				81.4,162.9 83.9,143.6 90.5,143.6 85.6,174.5 77.4,174.5 			"/>
		</g>
		<g>
			
				<linearGradient id="SVGID_00000150092808682035599230000003503563294414932109_" gradientUnits="userSpaceOnUse" x1="97.7" y1="2.1964" x2="97.7" y2="170.8283">
				<stop  offset="0" style="stop-color:#FFFFFF"/>
				<stop  offset="0.2244" style="stop-color:#F6F6F6"/>
				<stop  offset="0.5903" style="stop-color:#DEDEDE"/>
				<stop  offset="1" style="stop-color:#BBBBBB"/>
			</linearGradient>
			<path style="fill:url(#SVGID_00000150092808682035599230000003503563294414932109_);" d="M89.5,159.1c0-11,3.5-15.8,8.2-15.8
				s8.2,4.8,8.2,15.8c0,10.9-3.5,15.7-8.2,15.7S89.5,170,89.5,159.1z M99.4,159.1c0-6.9-1-9.4-1.8-9.4s-1.8,2.5-1.8,9.4
				c0,6.7,1,9.2,1.8,9.2S99.4,165.8,99.4,159.1z"/>
		</g>
		<g>
			
				<linearGradient id="SVGID_00000038405815875922574290000013090606253506990736_" gradientUnits="userSpaceOnUse" x1="110.2" y1="2.1964" x2="110.2" y2="170.8283">
				<stop  offset="0" style="stop-color:#FFFFFF"/>
				<stop  offset="0.2244" style="stop-color:#F6F6F6"/>
				<stop  offset="0.5903" style="stop-color:#DEDEDE"/>
				<stop  offset="1" style="stop-color:#BBBBBB"/>
			</linearGradient>
			<path style="fill:url(#SVGID_00000038405815875922574290000013090606253506990736_);" d="M107,135h6.4v6.8H107V135z M107,143.6
				h6.4v30.9H107V143.6z"/>
		</g>
		<g>
			
				<linearGradient id="SVGID_00000079468893347623893900000008893846048623881118_" gradientUnits="userSpaceOnUse" x1="122.7" y1="2.1964" x2="122.7" y2="170.8283">
				<stop  offset="0" style="stop-color:#FFFFFF"/>
				<stop  offset="0.2244" style="stop-color:#F6F6F6"/>
				<stop  offset="0.5903" style="stop-color:#DEDEDE"/>
				<stop  offset="1" style="stop-color:#BBBBBB"/>
			</linearGradient>
			<path style="fill:url(#SVGID_00000079468893347623893900000008893846048623881118_);" d="M114.6,159.1c0-11,3.5-15.8,8.2-15.8
				c4.2,0,7.3,3.7,8,13.1h-6.4c-0.3-5.2-1.1-6.7-1.6-6.7c-0.8,0-1.8,2.5-1.8,9.4s1,9.2,1.8,9.2c0.6,0,1.3-1.5,1.6-6.5h6.4
				c-0.7,9.3-3.9,13-8,13C118.1,174.8,114.6,170.2,114.6,159.1z"/>
		</g>
		<g>
			
				<linearGradient id="SVGID_00000148624750049160387620000005120220527340206516_" gradientUnits="userSpaceOnUse" x1="139.5085" y1="2.1964" x2="139.5085" y2="170.8283">
				<stop  offset="0" style="stop-color:#FFFFFF"/>
				<stop  offset="0.2244" style="stop-color:#F6F6F6"/>
				<stop  offset="0.5903" style="stop-color:#DEDEDE"/>
				<stop  offset="1" style="stop-color:#BBBBBB"/>
			</linearGradient>
			<path style="fill:url(#SVGID_00000148624750049160387620000005120220527340206516_);" d="M131.4,159.1c0-11,3.5-15.8,8.2-15.8
				c6.7,0,8.2,9.2,8,18.3h-9.7c0.2,5,0.9,6.7,1.7,6.7c0.6,0,1.3-0.9,1.6-3.5h6.1c-1.1,7-4,10-7.7,10
				C134.9,174.8,131.4,170.2,131.4,159.1z M141.4,156.7c-0.1-4-0.8-6.9-1.8-6.9c-0.8,0-1.5,1.7-1.7,6.9H141.4z"/>
		</g>
		<g>
			
				<linearGradient id="SVGID_00000010299482114732791680000006655541871343979935_" gradientUnits="userSpaceOnUse" x1="153.5" y1="2.1964" x2="153.5" y2="170.8283">
				<stop  offset="0" style="stop-color:#FFFFFF"/>
				<stop  offset="0.2244" style="stop-color:#F6F6F6"/>
				<stop  offset="0.5903" style="stop-color:#DEDEDE"/>
				<stop  offset="1" style="stop-color:#BBBBBB"/>
			</linearGradient>
			<polygon style="fill:url(#SVGID_00000010299482114732791680000006655541871343979935_);" points="152.2,169.1 155.7,169.1 
				154.8,174.5 151.3,174.5 			"/>
		</g>
		<g>
			
				<linearGradient id="SVGID_00000069363075875800335920000007710025279124905118_" gradientUnits="userSpaceOnUse" x1="161.85" y1="2.1964" x2="161.85" y2="170.8283">
				<stop  offset="0" style="stop-color:#FFFFFF"/>
				<stop  offset="0.2244" style="stop-color:#F6F6F6"/>
				<stop  offset="0.5903" style="stop-color:#DEDEDE"/>
				<stop  offset="1" style="stop-color:#BBBBBB"/>
			</linearGradient>
			<polygon style="fill:url(#SVGID_00000069363075875800335920000007710025279124905118_);" points="163.4,136 166.9,136 
				160.3,174.5 156.8,174.5 			"/>
		</g>
		<g>
			
				<linearGradient id="SVGID_00000046312122364527439810000001593386869917467818_" gradientUnits="userSpaceOnUse" x1="169.5" y1="2.1964" x2="169.5" y2="170.8283">
				<stop  offset="0" style="stop-color:#FFFFFF"/>
				<stop  offset="0.2244" style="stop-color:#F6F6F6"/>
				<stop  offset="0.5903" style="stop-color:#DEDEDE"/>
				<stop  offset="1" style="stop-color:#BBBBBB"/>
			</linearGradient>
			<polygon style="fill:url(#SVGID_00000046312122364527439810000001593386869917467818_);" points="169.6,136 173.1,136 171.7,144 
				176,144 175.4,147.5 171.1,147.5 166.5,174.5 163,174.5 			"/>
		</g>
		<g>
			
				<linearGradient id="SVGID_00000003070413950075179270000016432451689719543434_" gradientUnits="userSpaceOnUse" x1="180.2" y1="2.1964" x2="180.2" y2="170.8283">
				<stop  offset="0" style="stop-color:#FFFFFF"/>
				<stop  offset="0.2244" style="stop-color:#F6F6F6"/>
				<stop  offset="0.5903" style="stop-color:#DEDEDE"/>
				<stop  offset="1" style="stop-color:#BBBBBB"/>
			</linearGradient>
			<path style="fill:url(#SVGID_00000003070413950075179270000016432451689719543434_);" d="M171.6,167.2c0-7.8,2.9-23.5,8.8-23.5
				c1.9,0,2.7,1.6,3.1,3.3l0.1-1.3l1.7-9.7h3.5l-6.6,38.5h-3.5l0.3-1.7l0.3-1.3c-0.9,1.9-2,3.3-3.9,3.3
				C172.8,174.8,171.6,171.7,171.6,167.2z M181.3,159.3c1.3-7.6,0.9-12.1-0.6-12.1c-2.7,0-5.6,12.6-5.6,19.9c0,2.7,0.4,4.1,1.3,4.1
				C178.1,171.2,180,166.9,181.3,159.3z"/>
		</g>
	</g>
</g>
</svg>
